<svg width="115" height="79" viewBox="0 0 115 79" fill="none" xmlns="http://www.w3.org/2000/svg">
<path d="M88.7056 18.8349L108.706 6.73136C110.372 5.72305 112.5 6.92272 112.5 8.87019V71.2107C112.5 73.032 110.615 74.2421 108.959 73.4837L88.959 64.3243C88.07 63.9172 87.5 63.0291 87.5 62.0513V20.9737C87.5 20.0989 87.9572 19.2878 88.7056 18.8349Z" stroke="url(#paint0_linear)" stroke-width="5"/>
<mask id="path-2-inside-1" fill="white">
<path fill-rule="evenodd" clip-rule="evenodd" d="M78 31.5877V64.9999H0V32.6543C0 26.5792 4.92487 21.6544 11 21.6544H49.5818C50.636 18.8711 53.0378 16.7106 56.0832 16.0468L74.3611 12.0627C76.2314 11.655 78 13.0796 78 14.9939V21.6544V31.5877Z"/>
</mask>
<path d="M78 64.9999V69.9999H83V64.9999H78ZM0 64.9999H-5V69.9999H0V64.9999ZM49.5818 21.6544V26.6544H53.0346L54.2576 23.4254L49.5818 21.6544ZM56.0832 16.0468L57.1481 20.932L56.0832 16.0468ZM74.3611 12.0627L73.2962 7.17739V7.17739L74.3611 12.0627ZM73 31.5877V64.9999H83V31.5877H73ZM78 59.9999H0V69.9999H78V59.9999ZM5 64.9999V32.6543H-5V64.9999H5ZM5 32.6543C5 29.3406 7.68628 26.6544 11 26.6544V16.6544C2.16345 16.6544 -5 23.8178 -5 32.6543H5ZM11 26.6544H49.5818V16.6544H11V26.6544ZM54.2576 23.4254C54.7281 22.1834 55.798 21.2263 57.1481 20.932L55.0184 11.1615C50.2776 12.1948 46.5439 15.5588 44.9059 19.8833L54.2576 23.4254ZM57.1481 20.932L75.4259 16.948L73.2962 7.17739L55.0184 11.1615L57.1481 20.932ZM75.4259 16.948C74.1791 17.2198 73 16.27 73 14.9939H83C83 9.88915 78.2838 6.09023 73.2962 7.17739L75.4259 16.948ZM73 14.9939V21.6544H83V14.9939H73ZM73 21.6544V31.5877H83V21.6544H73Z" fill="url(#paint1_linear)" mask="url(#path-2-inside-1)"/>
<circle cx="16" cy="35" r="3" fill="url(#paint2_linear)"/>
<circle cx="27" cy="35" r="3" fill="url(#paint3_linear)"/>
<defs>
<linearGradient id="paint0_linear" x1="100" y1="0" x2="100" y2="79" gradientUnits="userSpaceOnUse">
<stop stop-color="#B43EB0"/>
<stop offset="1" stop-color="#6453CF"/>
</linearGradient>
<linearGradient id="paint1_linear" x1="39" y1="11.9927" x2="39" y2="64.9999" gradientUnits="userSpaceOnUse">
<stop stop-color="#498CCE"/>
<stop offset="1" stop-color="#4BBFAA"/>
</linearGradient>
<linearGradient id="paint2_linear" x1="16" y1="32" x2="16" y2="38" gradientUnits="userSpaceOnUse">
<stop stop-color="#B43EB0"/>
<stop offset="1" stop-color="#6453CF"/>
</linearGradient>
<linearGradient id="paint3_linear" x1="27" y1="32" x2="27" y2="38" gradientUnits="userSpaceOnUse">
<stop stop-color="#B43EB0"/>
<stop offset="1" stop-color="#6453CF"/>
</linearGradient>
</defs>
</svg>
