<svg width="130" height="102" viewBox="0 0 130 102" fill="none" xmlns="http://www.w3.org/2000/svg">
<mask id="path-1-inside-1" fill="white">
<path fill-rule="evenodd" clip-rule="evenodd" d="M12.0135 4.06653C6.02786 4.06653 1.17555 8.91884 1.17555 14.9045V74.526C1.17555 74.7543 1.18261 74.981 1.19652 75.2057C1.18262 75.4163 1.17555 75.6287 1.17555 75.8427C1.17555 81.1012 5.43838 85.364 10.6969 85.364H43.3428C48.6013 85.364 52.8641 81.1012 52.8641 75.8427C52.8641 70.5842 48.6013 66.3214 43.3428 66.3214H22.8514V14.9045C22.8514 8.91883 17.9991 4.06653 12.0135 4.06653Z"/>
</mask>
<path d="M1.19652 75.2057L6.18565 75.5353L6.20673 75.2161L6.18697 74.8969L1.19652 75.2057ZM22.8514 66.3214H17.8514V71.3214H22.8514V66.3214ZM6.17555 14.9045C6.17555 11.6803 8.78929 9.06653 12.0135 9.06653V-0.933472C3.26643 -0.933472 -3.82445 6.15742 -3.82445 14.9045H6.17555ZM6.17555 74.526V14.9045H-3.82445V74.526H6.17555ZM6.18697 74.8969C6.17942 74.7749 6.17555 74.6512 6.17555 74.526H-3.82445C-3.82445 74.8574 -3.8142 75.187 -3.79393 75.5146L6.18697 74.8969ZM6.17555 75.8427C6.17555 75.7387 6.17898 75.6362 6.18565 75.5353L-3.79261 74.8762C-3.81375 75.1963 -3.82445 75.5186 -3.82445 75.8427H6.17555ZM10.6969 80.364C8.19981 80.364 6.17555 78.3398 6.17555 75.8427H-3.82445C-3.82445 83.8626 2.67695 90.364 10.6969 90.364V80.364ZM43.3428 80.364H10.6969V90.364H43.3428V80.364ZM47.8641 75.8427C47.8641 78.3398 45.8399 80.364 43.3428 80.364V90.364C51.3627 90.364 57.8641 83.8626 57.8641 75.8427H47.8641ZM43.3428 71.3214C45.8399 71.3214 47.8641 73.3456 47.8641 75.8427H57.8641C57.8641 67.8228 51.3627 61.3214 43.3428 61.3214V71.3214ZM22.8514 71.3214H43.3428V61.3214H22.8514V71.3214ZM17.8514 14.9045V66.3214H27.8514V14.9045H17.8514ZM12.0135 9.06653C15.2377 9.06653 17.8514 11.6803 17.8514 14.9045H27.8514C27.8514 6.15741 20.7605 -0.933472 12.0135 -0.933472V9.06653Z" fill="url(#paint0_linear)" mask="url(#path-1-inside-1)"/>
<mask id="path-3-inside-2" fill="white">
<path fill-rule="evenodd" clip-rule="evenodd" d="M117.892 4.06653C123.877 4.06653 128.73 8.91884 128.73 14.9045V74.526C128.73 74.7543 128.723 74.9809 128.709 75.2057C128.723 75.4163 128.73 75.6287 128.73 75.8427C128.73 81.1012 124.467 85.364 119.208 85.364H86.5624C81.3039 85.364 77.0411 81.1012 77.0411 75.8427C77.0411 70.5842 81.3039 66.3214 86.5624 66.3214H107.054V14.9045C107.054 8.91883 111.906 4.06653 117.892 4.06653Z"/>
</mask>
<path d="M128.709 75.2057L123.72 75.5353L123.698 75.2161L123.718 74.8969L128.709 75.2057ZM107.054 66.3214H112.054V71.3214H107.054V66.3214ZM123.73 14.9045C123.73 11.6803 121.116 9.06653 117.892 9.06653V-0.933472C126.639 -0.933472 133.73 6.15742 133.73 14.9045H123.73ZM123.73 74.526V14.9045H133.73V74.526H123.73ZM123.718 74.8969C123.726 74.7749 123.73 74.6512 123.73 74.526H133.73C133.73 74.8574 133.719 75.187 133.699 75.5145L123.718 74.8969ZM123.73 75.8427C123.73 75.7387 123.726 75.6362 123.72 75.5353L133.698 74.8762C133.719 75.1963 133.73 75.5186 133.73 75.8427H123.73ZM119.208 80.364C121.705 80.364 123.73 78.3398 123.73 75.8427H133.73C133.73 83.8626 127.228 90.364 119.208 90.364V80.364ZM86.5624 80.364H119.208V90.364H86.5624V80.364ZM82.0411 75.8427C82.0411 78.3398 84.0653 80.364 86.5624 80.364V90.364C78.5425 90.364 72.0411 83.8626 72.0411 75.8427H82.0411ZM86.5624 71.3214C84.0653 71.3214 82.0411 73.3456 82.0411 75.8427H72.0411C72.0411 67.8228 78.5425 61.3214 86.5624 61.3214V71.3214ZM107.054 71.3214H86.5624V61.3214H107.054V71.3214ZM112.054 14.9045V66.3214H102.054V14.9045H112.054ZM117.892 9.06653C114.667 9.06653 112.054 11.6803 112.054 14.9045H102.054C102.054 6.15741 109.145 -0.933472 117.892 -0.933472V9.06653Z" fill="url(#paint1_linear)" mask="url(#path-3-inside-2)"/>
<path fill-rule="evenodd" clip-rule="evenodd" d="M19.1389 90.161C19.1389 88.7803 18.0196 87.661 16.6389 87.661C15.2582 87.661 14.1389 88.7803 14.1389 90.161V96H3.29988C1.91917 96 0.799881 97.1193 0.799881 98.5C0.799881 99.8807 1.91917 101 3.29988 101H16.6389H29.1463C30.527 101 31.6463 99.8807 31.6463 98.5C31.6463 97.1193 30.527 96 29.1463 96H19.1389V90.161Z" fill="url(#paint2_linear)"/>
<path fill-rule="evenodd" clip-rule="evenodd" d="M116.68 91.161C116.68 89.7803 115.561 88.661 114.18 88.661C112.799 88.661 111.68 89.7803 111.68 91.161V97H100.841C99.4605 97 98.3412 98.1193 98.3412 99.5C98.3412 100.881 99.4605 102 100.841 102H114.18H126.688C128.068 102 129.188 100.881 129.188 99.5C129.188 98.1193 128.068 97 126.688 97H116.68V91.161Z" fill="url(#paint3_linear)"/>
<defs>
<linearGradient id="paint0_linear" x1="27.0198" y1="4.06653" x2="27.0198" y2="85.364" gradientUnits="userSpaceOnUse">
<stop stop-color="#498CCE"/>
<stop offset="1" stop-color="#4BBFAA"/>
</linearGradient>
<linearGradient id="paint1_linear" x1="102.885" y1="4.06653" x2="102.885" y2="85.364" gradientUnits="userSpaceOnUse">
<stop stop-color="#498CCE"/>
<stop offset="1" stop-color="#4BBFAA"/>
</linearGradient>
<linearGradient id="paint2_linear" x1="16.2231" y1="87.661" x2="16.2231" y2="101" gradientUnits="userSpaceOnUse">
<stop stop-color="#B43EB0"/>
<stop offset="1" stop-color="#6453CF"/>
</linearGradient>
<linearGradient id="paint3_linear" x1="113.764" y1="88.661" x2="113.764" y2="102" gradientUnits="userSpaceOnUse">
<stop stop-color="#B43EB0"/>
<stop offset="1" stop-color="#6453CF"/>
</linearGradient>
</defs>
</svg>
