<svg width="141" height="85" viewBox="0 0 141 85" fill="none" xmlns="http://www.w3.org/2000/svg">
<path d="M2.5 6.64429H88.5V42.1443C88.5 57.3321 76.1878 69.6443 61 69.6443H30C14.8122 69.6443 2.5 57.3321 2.5 42.1443V6.64429Z" stroke="#82027E" stroke-width="5"/>
<path d="M99.3614 16.0832C102.345 13.7006 105.927 12.1984 109.7 11.7441C113.474 11.2899 117.289 11.9015 120.716 13.5074C124.144 15.1134 127.048 17.6507 129.102 20.8335C131.156 24.0165 132.279 27.7199 132.34 31.5264C132.402 35.3331 131.4 39.0906 129.446 42.3736C127.492 45.6566 124.665 48.3322 121.285 50.0985C117.905 51.8648 114.109 52.6508 110.325 52.3708C106.542 52.0907 102.921 50.7558 99.8699 48.518" stroke="#215282" stroke-width="5" stroke-linecap="round"/>
</svg>
