<svg width="129" height="131" viewBox="0 0 129 131" fill="none" xmlns="http://www.w3.org/2000/svg">
<path d="M104.68 26.1382C103.376 26.591 102.685 28.0155 103.138 29.3198C103.591 30.6242 105.015 31.3145 106.32 30.8618L104.68 26.1382ZM107.098 27.9452L106.278 25.5835L107.098 27.9452ZM55.9191 44.7992L55.1456 42.4218L55.9191 44.7992ZM85.2735 37.8773C86.5865 37.4501 87.3045 36.0395 86.8773 34.7265C86.4501 33.4135 85.0395 32.6955 83.7265 33.1227L85.2735 37.8773ZM112.389 32.5149L123.033 64.7115L127.78 63.1421L117.136 30.9455L112.389 32.5149ZM120.808 69.1332L69.5371 86.0827L71.1065 90.83L122.377 73.8805L120.808 69.1332ZM65.1154 83.8581L54.4524 51.6033L49.7051 53.1727L60.3681 85.4275L65.1154 83.8581ZM106.32 30.8618L107.918 30.307L106.278 25.5835L104.68 26.1382L106.32 30.8618ZM56.6926 47.1765L85.2735 37.8773L83.7265 33.1227L55.1456 42.4218L56.6926 47.1765ZM54.4524 51.6033C53.8436 49.7619 54.8483 47.7766 56.6926 47.1765L55.1456 42.4218C50.6666 43.8791 48.2267 48.7007 49.7051 53.1727L54.4524 51.6033ZM69.5371 86.0827C67.7018 86.6894 65.7221 85.6934 65.1154 83.8581L60.3681 85.4275C61.8416 89.8847 66.6493 92.3035 71.1065 90.83L69.5371 86.0827ZM123.033 64.7115C123.639 66.5468 122.643 68.5264 120.808 69.1332L122.377 73.8805C126.835 72.407 129.253 67.5992 127.78 63.1421L123.033 64.7115ZM117.136 30.9455C115.647 26.4415 110.76 24.0279 106.278 25.5835L107.918 30.307C109.763 29.6664 111.776 30.6603 112.389 32.5149L117.136 30.9455Z" fill="#215282"/>
<path d="M10.6877 44.2308L39.2974 51.5382C40.4464 51.8317 41.3687 52.687 41.7477 53.8108L54.4224 91.3894C54.761 92.3934 54.6266 93.4967 54.0569 94.39L39.2545 117.6C37.7134 120.017 34.0802 119.658 33.0415 116.987L6.55954 48.8905C5.52731 46.2362 7.92836 43.526 10.6877 44.2308Z" stroke="#82027E" stroke-width="5"/>
<path d="M95.5 2.5L95.5 51.5" stroke="#82027E" stroke-width="5" stroke-linecap="round"/>
<circle cx="95" cy="52" r="5" fill="#82027E"/>
</svg>
