<svg width="129" height="131" viewBox="0 0 129 131" fill="none" xmlns="http://www.w3.org/2000/svg">
<path d="M104.68 26.1382C103.376 26.591 102.685 28.0155 103.138 29.3198C103.591 30.6242 105.015 31.3145 106.32 30.8618L104.68 26.1382ZM85.2735 37.8773C86.5865 37.4501 87.3045 36.0395 86.8773 34.7265C86.4501 33.4135 85.0395 32.6955 83.7265 33.1227L85.2735 37.8773ZM112.389 32.5149L123.033 64.7115L127.78 63.1421L117.136 30.9455L112.389 32.5149ZM120.808 69.1332L69.5371 86.0827L71.1065 90.83L122.377 73.8805L120.808 69.1332ZM65.1154 83.8581L54.4524 51.6033L49.7051 53.1727L60.3681 85.4275L65.1154 83.8581ZM106.32 30.8618L107.918 30.307L106.278 25.5835L104.68 26.1382L106.32 30.8618ZM56.6926 47.1765L85.2735 37.8773L83.7265 33.1227L55.1456 42.4218L56.6926 47.1765ZM54.4524 51.6033C53.8436 49.7619 54.8483 47.7766 56.6926 47.1765L55.1456 42.4218C50.6666 43.8791 48.2267 48.7007 49.7051 53.1727L54.4524 51.6033ZM69.5371 86.0827C67.7018 86.6894 65.7221 85.6934 65.1154 83.8581L60.3681 85.4275C61.8416 89.8847 66.6493 92.3035 71.1065 90.83L69.5371 86.0827ZM123.033 64.7115C123.639 66.5468 122.643 68.5264 120.808 69.1332L122.377 73.8805C126.835 72.407 129.253 67.5992 127.78 63.1421L123.033 64.7115ZM117.136 30.9455C115.647 26.4415 110.76 24.0279 106.278 25.5835L107.918 30.307C109.763 29.6664 111.776 30.6603 112.389 32.5149L117.136 30.9455Z" fill="url(#paint0_linear)"/>
<path d="M4.22953 49.7966C2.45999 45.2463 6.57606 40.6003 11.3064 41.8085L39.9161 49.116C41.8858 49.6191 43.4668 51.0854 44.1166 53.0118L56.7913 90.5905C57.3717 92.3115 57.1414 94.2029 56.1647 95.7343L41.3623 118.945C38.7205 123.087 32.4922 122.472 30.7115 117.893L4.22953 49.7966Z" stroke="url(#paint1_linear)" stroke-width="5"/>
<path d="M95.5 2.5L95.5 51.5" stroke="url(#paint2_linear)" stroke-width="5" stroke-linecap="round"/>
<circle cx="95" cy="52" r="5" fill="url(#paint3_linear)"/>
<defs>
<linearGradient id="paint0_linear" x1="120.07" y1="47.7859" x2="57.4058" y2="68.502" gradientUnits="userSpaceOnUse">
<stop stop-color="#498CCE"/>
<stop offset="1" stop-color="#4BBFAA"/>
</linearGradient>
<linearGradient id="paint1_linear" x1="17.6716" y1="32.9603" x2="48.5016" y2="124.367" gradientUnits="userSpaceOnUse">
<stop stop-color="#B43EB0"/>
<stop offset="1" stop-color="#6453CF"/>
</linearGradient>
<linearGradient id="paint2_linear" x1="95.5" y1="27" x2="95.5" y2="27" gradientUnits="userSpaceOnUse">
<stop stop-color="#B43EB0"/>
<stop offset="1" stop-color="#6453CF"/>
</linearGradient>
<linearGradient id="paint3_linear" x1="95" y1="47" x2="95" y2="57" gradientUnits="userSpaceOnUse">
<stop stop-color="#B43EB0"/>
<stop offset="1" stop-color="#6453CF"/>
</linearGradient>
</defs>
</svg>
