<svg width="72" height="134" viewBox="0 0 72 134" fill="none" xmlns="http://www.w3.org/2000/svg">
<path fill-rule="evenodd" clip-rule="evenodd" d="M5.5 51C5.5 49.6193 4.38071 48.5 3 48.5C1.61929 48.5 0.5 49.6193 0.5 51V75C0.5 93.9351 15.3246 109.408 34.0006 110.445C34.0002 110.463 34 110.481 34 110.5V131.5C34 132.881 35.1193 134 36.5 134C37.8807 134 39 132.881 39 131.5V110.5C39 110.458 38.999 110.417 38.9969 110.375C57.2005 108.854 71.5 93.5967 71.5 75V51C71.5 49.6193 70.3807 48.5 69 48.5C67.6193 48.5 66.5 49.6193 66.5 51V75C66.5 91.8447 52.8447 105.5 36 105.5C19.1553 105.5 5.5 91.8447 5.5 75V51Z" fill="#215282"/>
<path fill-rule="evenodd" clip-rule="evenodd" d="M54 36V73C54 82.9411 45.9411 91 36 91C26.0589 91 18 82.9411 18 73V36C18 26.0589 26.0589 18 36 18C45.9411 18 54 26.0589 54 36ZM13 36C13 23.2975 23.2975 13 36 13C48.7025 13 59 23.2975 59 36V73C59 85.7026 48.7025 96 36 96C23.2975 96 13 85.7026 13 73V36ZM25.7778 37.6188C25.7778 36.2381 26.8971 35.1188 28.2778 35.1188H43.7222C45.1029 35.1188 46.2222 36.2381 46.2222 37.6188C46.2222 38.9995 45.1029 40.1188 43.7222 40.1188H28.2778C26.8971 40.1188 25.7778 38.9995 25.7778 37.6188ZM25.7778 48.302C25.7778 46.9213 26.8971 45.802 28.2778 45.802H43.7222C45.1029 45.802 46.2222 46.9213 46.2222 48.302C46.2222 49.6827 45.1029 50.802 43.7222 50.802H28.2778C26.8971 50.802 25.7778 49.6827 25.7778 48.302ZM28.2778 56.4852C26.8971 56.4852 25.7778 57.6045 25.7778 58.9852C25.7778 60.3659 26.8971 61.4852 28.2778 61.4852H43.7222C45.1029 61.4852 46.2222 60.3659 46.2222 58.9852C46.2222 57.6045 45.1029 56.4852 43.7222 56.4852H28.2778ZM25.7778 69.6683C25.7778 68.2876 26.8971 67.1683 28.2778 67.1683H43.7222C45.1029 67.1683 46.2222 68.2876 46.2222 69.6683C46.2222 71.049 45.1029 72.1683 43.7222 72.1683H28.2778C26.8971 72.1683 25.7778 71.049 25.7778 69.6683Z" fill="#82027E"/>
</svg>
