<svg width="118" height="92" viewBox="0 0 118 92" fill="none" xmlns="http://www.w3.org/2000/svg">
<rect x="2.5" y="2.5" width="113" height="87" stroke="url(#paint0_linear)" stroke-width="5"/>
<path fill-rule="evenodd" clip-rule="evenodd" d="M31.7446 19.5C31.7446 18.6716 31.073 18 30.2446 18C29.4162 18 28.7446 18.6716 28.7446 19.5L28.7446 43.8959C26.563 44.6485 25 46.6792 25 49.0662C25 51.4532 26.563 53.4839 28.7446 54.2365L28.7446 72.5411C28.7446 73.3696 29.4162 74.0411 30.2446 74.0411C31.073 74.0411 31.7446 73.3696 31.7446 72.5411L31.7446 54.438C34.3062 53.9284 36.2337 51.717 36.2337 49.0662C36.2337 46.4154 34.3062 44.204 31.7446 43.6944L31.7446 19.5ZM60.453 19.5C60.453 18.6716 59.7814 18 58.953 18C58.1245 18 57.453 18.6716 57.453 19.5V32.9313C55.2714 33.6839 53.7084 35.7146 53.7084 38.1016C53.7084 40.4887 55.2714 42.5194 57.453 43.272L57.453 72.5411C57.453 73.3696 58.1245 74.0411 58.953 74.0411C59.7814 74.0411 60.453 73.3696 60.453 72.5411L60.453 43.4734C63.0146 42.9638 64.9421 40.7524 64.9421 38.1016C64.9421 35.4509 63.0146 33.2395 60.453 32.7299V19.5ZM87.6614 18C88.4898 18 89.1614 18.6716 89.1614 19.5V52.2225C91.723 52.7321 93.6505 54.9435 93.6505 57.5943C93.6505 60.2451 91.723 62.4564 89.1614 62.966V72.5411C89.1614 73.3696 88.4898 74.0411 87.6614 74.0411C86.833 74.0411 86.1614 73.3696 86.1614 72.5411V62.7646C83.9798 62.012 82.4168 59.9813 82.4168 57.5943C82.4168 55.2073 83.9798 53.1766 86.1614 52.424V19.5C86.1614 18.6716 86.833 18 87.6614 18Z" fill="url(#paint1_linear)"/>
<defs>
<linearGradient id="paint0_linear" x1="59" y1="0" x2="59" y2="92" gradientUnits="userSpaceOnUse">
<stop stop-color="#498CCE"/>
<stop offset="1" stop-color="#4BBFAA"/>
</linearGradient>
<linearGradient id="paint1_linear" x1="59.3253" y1="18" x2="59.3253" y2="74.0411" gradientUnits="userSpaceOnUse">
<stop stop-color="#B43EB0"/>
<stop offset="1" stop-color="#6453CF"/>
</linearGradient>
</defs>
</svg>
