<svg width="171" height="107" viewBox="0 0 171 107" fill="none" xmlns="http://www.w3.org/2000/svg">
<rect x="2.5" y="2.5" width="57" height="102" stroke="#215282" stroke-width="5"/>
<path fill-rule="evenodd" clip-rule="evenodd" d="M164 22H78C76.8954 22 76 22.8954 76 24V81C76 82.1046 76.8954 83 78 83H164C165.105 83 166 82.1046 166 81V24C166 22.8954 165.105 22 164 22ZM78 17C74.134 17 71 20.134 71 24V81C71 84.866 74.134 88 78 88H121V102H109.5C108.119 102 107 103.119 107 104.5C107 105.881 108.119 107 109.5 107H136.5C137.881 107 139 105.881 139 104.5C139 103.119 137.881 102 136.5 102H126V88H164C167.866 88 171 84.866 171 81V24C171 20.134 167.866 17 164 17H78Z" fill="#82027E"/>
<line x1="18.5" y1="22.5" x2="45.5" y2="22.5" stroke="#215282" stroke-width="5" stroke-linecap="round"/>
<line x1="18.5" y1="34.5" x2="45.5" y2="34.5" stroke="#215282" stroke-width="5" stroke-linecap="round"/>
<circle cx="18" cy="91" r="2" fill="#82027E"/>
<circle cx="25" cy="91" r="2" fill="#82027E"/>
</svg>
