<svg width="102" height="94" viewBox="0 0 102 94" fill="none" xmlns="http://www.w3.org/2000/svg">
<path d="M35.1262 31.6549L70.1262 6.56908C71.1187 5.85768 72.5 6.5671 72.5 7.78827V86.6597C72.5 87.8475 71.185 88.5641 70.1869 87.9202L35.1869 65.343C34.7587 65.0668 34.5 64.5921 34.5 64.0825V32.874C34.5 32.3905 34.7331 31.9366 35.1262 31.6549Z" stroke="#82027E" stroke-width="5"/>
<path fill-rule="evenodd" clip-rule="evenodd" d="M94.3782 30.4756C91.1538 25.8088 87.0159 23.5 83 23.5C82.3096 23.5 81.75 22.9404 81.75 22.25C81.75 21.5596 82.3096 21 83 21C88.0384 21 92.8714 23.8966 96.435 29.0546C99.9982 34.2118 102 41.2065 102 48.5C102 55.7935 99.9982 62.7882 96.435 67.9454C92.8714 73.1034 88.0384 76 83 76C82.3096 76 81.75 75.4404 81.75 74.75C81.75 74.0596 82.3096 73.5 83 73.5C87.0159 73.5 91.1538 71.1912 94.3782 66.5244C97.6078 61.8499 99.5 55.3711 99.5 48.5C99.5 41.6289 97.6078 35.1501 94.3782 30.4756ZM88.0622 40.4421C86.5589 38.4126 84.7066 37.5 83 37.5C82.3096 37.5 81.75 36.9404 81.75 36.25C81.75 35.5596 82.3096 35 83 35C85.6512 35 88.195 36.4214 90.0711 38.9541C91.9464 41.4857 93 44.9195 93 48.5C93 52.0805 91.9464 55.5143 90.0711 58.0459C88.195 60.5786 85.6512 62 83 62C82.3096 62 81.75 61.4404 81.75 60.75C81.75 60.0596 82.3096 59.5 83 59.5C84.7066 59.5 86.5589 58.5874 88.0622 56.5579C89.576 54.5141 90.5 51.6208 90.5 48.5C90.5 45.3792 89.576 42.4859 88.0622 40.4421Z" fill="#82027E"/>
<path d="M16 33.5H24.5V63.5H16C8.54416 63.5 2.5 57.4558 2.5 50V47C2.5 39.5442 8.54416 33.5 16 33.5Z" stroke="#215282" stroke-width="5"/>
</svg>
