<svg width="172" height="99" viewBox="0 0 172 99" fill="none" xmlns="http://www.w3.org/2000/svg">
<path d="M8.21995 2.5H162.284C164.317 2.5 165.5 4.79842 164.318 6.4531L151.461 24.4531C150.992 25.1101 150.234 25.5 149.427 25.5H17.5414C16.6072 25.5 15.751 24.9792 15.3214 24.1496L5.99996 6.14963C5.13821 4.48555 6.34597 2.5 8.21995 2.5Z" stroke="#82027E" stroke-width="5"/>
<path d="M47.872 47.0521L29.2126 93.8595C28.7102 95.1197 27.4425 95.9028 26.0907 95.7879C24.2529 95.6318 22.9634 93.9063 23.3344 92.0995L33.4685 42.7395C34.2378 38.9924 37.6889 36.4135 41.5004 36.7373C46.5475 37.1662 49.7477 42.3468 47.872 47.0521Z" stroke="#215282" stroke-width="5"/>
<path d="M120.474 47.7078L140.14 93.6599C140.657 94.8691 141.886 95.6153 143.198 95.5164C145.052 95.3767 146.359 93.6359 145.976 91.8163L135.675 42.9059C134.847 38.9772 131.239 36.2682 127.236 36.5698C121.759 36.9825 118.313 42.6589 120.474 47.7078Z" stroke="#215282" stroke-width="5"/>
<line x1="11.9886" y1="17.5" x2="157.988" y2="16.394" stroke="#82027E" stroke-width="3"/>
</svg>
