<svg width="124" height="118" viewBox="0 0 124 118" fill="none" xmlns="http://www.w3.org/2000/svg">
<path d="M10 70.5H21.5V111.5H10C5.85786 111.5 2.5 108.142 2.5 104V78C2.5 73.8579 5.85786 70.5 10 70.5Z" stroke="url(#paint0_linear)" stroke-width="5"/>
<path d="M114 70.5H102.5V111.5H114C118.142 111.5 121.5 108.142 121.5 104V78C121.5 73.8579 118.142 70.5 114 70.5Z" stroke="url(#paint1_linear)" stroke-width="5"/>
<path d="M8.5 61C8.5 53.2894 9.89445 45.6586 12.5995 38.5449C15.3045 31.4314 19.2644 24.981 24.2436 19.5572C29.2225 14.1338 35.1216 9.84422 41.5979 6.92213C48.0735 4.00036 55.0054 2.5 62 2.5C68.9946 2.5 75.9265 4.00036 82.4021 6.92213C88.8784 9.84422 94.7775 14.1338 99.7563 19.5572C104.736 24.981 108.696 31.4314 111.4 38.5449C114.106 45.6585 115.5 53.2894 115.5 61" stroke="url(#paint2_linear)" stroke-width="5" stroke-linecap="round"/>
<path d="M19.5 61C19.5 54.7277 20.6121 48.522 22.7679 42.7391C24.9237 36.9564 28.0777 31.7179 32.0384 27.3171C35.9987 22.9167 40.6859 19.442 45.8245 17.077C50.9621 14.7125 56.4576 13.5 62 13.5C67.5424 13.5 73.0379 14.7125 78.1755 17.077C83.3141 19.442 88.0013 22.9167 91.9616 27.3171C95.9223 31.7179 99.0763 36.9563 101.232 42.7391C103.388 48.522 104.5 54.7277 104.5 61" stroke="url(#paint3_linear)" stroke-width="5" stroke-linecap="round"/>
<defs>
<linearGradient id="paint0_linear" x1="12" y1="68" x2="12" y2="114" gradientUnits="userSpaceOnUse">
<stop stop-color="#B43EB0"/>
<stop offset="1" stop-color="#6453CF"/>
</linearGradient>
<linearGradient id="paint1_linear" x1="112" y1="68" x2="112" y2="114" gradientUnits="userSpaceOnUse">
<stop stop-color="#B43EB0"/>
<stop offset="1" stop-color="#6453CF"/>
</linearGradient>
<linearGradient id="paint2_linear" x1="62" y1="0" x2="62" y2="122" gradientUnits="userSpaceOnUse">
<stop stop-color="#498CCE"/>
<stop offset="1" stop-color="#4BBFAA"/>
</linearGradient>
<linearGradient id="paint3_linear" x1="62" y1="11" x2="62" y2="111" gradientUnits="userSpaceOnUse">
<stop stop-color="#B43EB0"/>
<stop offset="1" stop-color="#6453CF"/>
</linearGradient>
</defs>
</svg>
