<svg width="138" height="99" viewBox="0 0 138 99" fill="none" xmlns="http://www.w3.org/2000/svg">
<circle cx="69" cy="75" r="7.5" stroke="url(#paint0_linear)" stroke-width="5"/>
<path d="M47.9976 57.1138C50.1735 53.2696 53.2427 50.0989 56.8962 47.8954C60.5486 45.6925 64.6668 44.5269 68.854 44.5005C73.0413 44.474 77.1719 45.5873 80.8484 47.7435C84.526 49.9002 87.6303 53.0313 89.8493 56.847" stroke="url(#paint1_linear)" stroke-width="5" stroke-linecap="round"/>
<path d="M32.5455 44.3686C36.3093 37.7193 41.6248 32.2231 47.9662 28.3984C54.3065 24.5744 61.4633 22.5469 68.7462 22.5008C76.0291 22.4547 83.2079 24.3916 89.5904 28.1348C95.9741 31.8786 101.351 37.3065 105.19 43.9071" stroke="url(#paint2_linear)" stroke-width="5" stroke-linecap="round"/>
<path d="M11.9367 36.3132C17.8144 26.0481 26.1225 17.5509 36.0487 11.6326C45.9741 5.71482 57.186 2.57262 68.6022 2.50124C80.0184 2.42987 91.2653 5.43165 101.257 11.2246C111.25 17.018 119.655 25.4102 125.65 35.6007" stroke="url(#paint3_linear)" stroke-width="5" stroke-linecap="round"/>
<defs>
<linearGradient id="paint0_linear" x1="69" y1="65" x2="69" y2="85" gradientUnits="userSpaceOnUse">
<stop stop-color="#B43EB0"/>
<stop offset="1" stop-color="#6453CF"/>
</linearGradient>
<linearGradient id="paint1_linear" x1="69" y1="42" x2="69" y2="99" gradientUnits="userSpaceOnUse">
<stop stop-color="#498CCE"/>
<stop offset="1" stop-color="#4BBFAA"/>
</linearGradient>
<linearGradient id="paint2_linear" x1="69" y1="20" x2="69" y2="115" gradientUnits="userSpaceOnUse">
<stop stop-color="#498CCE"/>
<stop offset="1" stop-color="#4BBFAA"/>
</linearGradient>
<linearGradient id="paint3_linear" x1="69" y1="0" x2="69" y2="144" gradientUnits="userSpaceOnUse">
<stop stop-color="#498CCE"/>
<stop offset="1" stop-color="#4BBFAA"/>
</linearGradient>
</defs>
</svg>
