<svg id="Layer_1" data-name="Layer 1" xmlns="http://www.w3.org/2000/svg" viewBox="0 0 595.28 230.07"><defs><style>.cls-1{fill:#183a5c;}.cls-2{fill:#82027e;}</style></defs><title>Logo HelloLive FINAL</title><path class="cls-1" d="M133.67,72.3C121.91,68.15,112.05,70.76,104,80V61.26c0-5.23-2.61-8-7.84-8h-8v73.35h0c0,4.94,2.45,7.47,7.58,7.47H104l-.16-.12.16.08v-32.2c0-9.62,4-17.46,13.42-17.46,9,0,13.07,6.89,13.07,17.46v32.2h15.68V97.6q.72-20.47-12.47-25.3"/><path class="cls-1" d="M226.21,53.3H218v68.48h0v4.63c-.12,5.11,2.37,7.72,7.6,7.72h8.2l-.2-.15.2.11V61a7.76,7.76,0,0,0-7.6-7.72"/><path class="cls-1" d="M253.29,53.3h-8.2v68.48h0v4.63c-.12,5.11,2.37,7.72,7.6,7.72h8.2l-.32-.24.32.2V61a7.76,7.76,0,0,0-7.6-7.72"/><path class="cls-1" d="M297.84,70.28c-19,0-28.52,10.81-28.52,32.67,0,21.62,9.51,32.55,28.52,32.55s28.62-10.93,28.62-32.55c0-21.86-9.62-32.67-28.62-32.67m-.12,51.08c-8.08,0-12.24-6.18-12.36-18.41,0-12.47,4.16-18.77,12.48-18.77,8.07,0,12.11,6.06,12.11,18.3-.12,12.47-4.15,18.88-12.23,18.88"/><path class="cls-1" d="M182.49,70.28c-19.12.12-28.75,10.81-28.75,32.2s9.51,32.43,28.52,33c15.44,0,24-7.36,27.44-20.67H198.06a6.9,6.9,0,0,0-5.35,2.26,14.59,14.59,0,0,1-10.22,4.51c-7.5,0-11.62-4.61-12.4-13.68h0a62.42,62.42,0,0,1,.36-13c1.33-7.74,5.32-11.73,11.85-11.73,6.77,0,10.69,4.28,11.64,12.59H175.5v11.29h35.15q1.77-36.89-28.16-36.83"/><path class="cls-2" d="M349.88,61v73.06h-15.8V53.3h8.19A7.76,7.76,0,0,1,349.88,61Z"/><path class="cls-2" d="M369.36,53.3c5.23,0,7.72,2.61,7.6,7.72v4.63h-15.8V53.3Zm0,17.93c5.11,0,7.6,2.5,7.6,7.61v55.24h-15.8V71.23Z"/><path class="cls-2" d="M445.74,71.23l-22.21,62.85H406.78l-22.1-62.85h17.47l12.71,44.08,10.92-38.49a7.48,7.48,0,0,1,7.73-5.59Z"/><path class="cls-2" d="M477.58,70.29c-19.13.12-28.75,10.81-28.75,32.19s9.51,32.43,28.51,33c15.45,0,24-7.36,27.44-20.67H493.14a6.9,6.9,0,0,0-5.34,2.26,14.6,14.6,0,0,1-10.22,4.51c-7.5,0-11.62-4.6-12.4-13.68h0a62.8,62.8,0,0,1,.35-13c1.34-7.74,5.32-11.73,11.85-11.73,6.78,0,10.69,4.28,11.65,12.59h-18.4v11.29h35.14c1.19-24.59-8.19-36.82-28.15-36.82"/><path class="cls-1" d="M464.82,156.19c-.32,0-.35.43-.35.54v15.48h2.07c.32,0,.35-.43.35-.55v-6a.26.26,0,0,1,.18-.2h2.73c.29,0,.34-.36.35-.51V163h-3.1a.23.23,0,0,1-.16-.24v-3.91a.25.25,0,0,1,.26-.22h3.72c.49,0,.48-.66.48-.66v-1.76Z"/><path class="cls-1" d="M473.36,156.19c-.32,0-.35.43-.35.54v15.48h2.06c.32,0,.35-.43.35-.55v-6a.28.28,0,0,1,.19-.2h2.72c.3,0,.34-.36.35-.51V163h-3.09a.23.23,0,0,1-.16-.24v-3.91a.25.25,0,0,1,.26-.22h3.73c.49,0,.47-.66.47-.66v-1.76Z"/><path class="cls-1" d="M441.47,162.11l-6.36-5.22c.12-.17,6.38-6.43,6.56-6.55a4.47,4.47,0,0,1,2.26-.75H452a4.5,4.5,0,0,1,2.26.75L442.57,162A.8.8,0,0,1,441.47,162.11Z"/><path class="cls-1" d="M453.34,162l0,0Z"/><path class="cls-1" d="M449,156.73l5.22-6.36c.18.12,6.44,6.37,6.56,6.55a4.5,4.5,0,0,1,.75,2.26v8.06a4.5,4.5,0,0,1-.75,2.26l-11.67-11.67A.81.81,0,0,1,449,156.73Z"/><path class="cls-1" d="M454.43,164.25l6.36,5.22c-.12.18-6.38,6.44-6.56,6.55a4.48,4.48,0,0,1-2.25.76h-8.06a4.52,4.52,0,0,1-2.26-.76l11.67-11.66A.8.8,0,0,1,454.43,164.25Z"/><path class="cls-1" d="M446.87,169.64,441.66,176c-.18-.12-6.44-6.38-6.56-6.56a4.47,4.47,0,0,1-.75-2.26v-8.05a4.47,4.47,0,0,1,.75-2.26l11.67,11.67A.8.8,0,0,1,446.87,169.64Z"/><path class="cls-1" d="M429.36,171.81h0l2.84-15.61h-2.09a.5.5,0,0,0-.5.36l-1.85,12a.12.12,0,0,1-.21,0l-1.86-12a.51.51,0,0,0-.49-.33h-2.1l2.87,16h2.92A.5.5,0,0,0,429.36,171.81Z"/><path class="cls-1" d="M483.81,156.2h-2v15.67c0,.3.4.34.4.34h2V156.54C484.21,156.24,483.81,156.2,483.81,156.2Z"/><path class="cls-1" d="M491.24,161.33v0Z"/><path class="cls-1" d="M491.64,161.67h2.11v-1.83a3.81,3.81,0,0,0-3.82-3.83,3.84,3.84,0,0,0-3.84,3.83v8.74a3.83,3.83,0,0,0,6.53,2.71,3.66,3.66,0,0,0,1.13-2.71v-1.88c0-.3-.4-.35-.4-.35h-2.11v2.21a1.31,1.31,0,0,1-.41,1,1.4,1.4,0,0,1-2,0,1.34,1.34,0,0,1-.4-1V159.8a1.38,1.38,0,0,1,2.36-1,1.31,1.31,0,0,1,.41,1v1.55C491.26,161.63,491.64,161.67,491.64,161.67Z"/><path class="cls-1" d="M502.26,158.61c.1,0,.33-.09.34-.32v-2.1h-6.53c-.3,0-.34.4-.34.4v15.22s0,.4.34.4h6.53v-2.1c0-.23-.24-.3-.34-.32h-4.12v-4.37h2.91c.11,0,.34-.09.35-.32V163h-3.26v-4.37Z"/><path class="cls-1" d="M504.73,158.47v-2.06h-.42v-.23h1.1v.23H505v2.06Z"/><path class="cls-1" d="M506.5,158.47h-.25l-.38-1.83v1.83h-.22v-2.29H506l.38,1.83.37-1.83h.35v2.29h-.24v-1.85Z"/><path class="cls-1" d="M356.06,164.85H354l-.51,2.9h-1.67l1.28-7.29a1.09,1.09,0,0,1,1-.87h2.77c1.73,0,2.46.92,2.16,2.63A2.89,2.89,0,0,1,356.06,164.85Zm-.16-1.48a1.31,1.31,0,0,0,1.47-1.18c.14-.79-.19-1.19-1-1.19h-1.7l-.42,2.37Z"/><path class="cls-1" d="M365.08,164.61c-.39,2.18-1.55,3.29-3.47,3.29s-2.69-1.11-2.3-3.29,1.54-3.31,3.46-3.31S365.47,162.4,365.08,164.61Zm-4.15,0c-.21,1.23.1,1.86.92,1.86s1.33-.65,1.57-1.91-.08-1.85-.9-1.85S361.15,163.34,360.93,164.61Z"/><path class="cls-1" d="M374.85,161.4,372,167.75h-1.65l-.16-4.55-1.81,4.55h-1.67l-.62-6.35h1.62l.23,4.41,1.69-4.41h1.69l.09,4.41,1.54-3.82a.92.92,0,0,1,.88-.59Z"/><path class="cls-1" d="M377,167.9c-1.91-.06-2.67-1.18-2.29-3.34s1.54-3.24,3.48-3.26,2.74,1.24,2.18,3.73h-4.1c-.11,1,.22,1.46,1,1.46a1.76,1.76,0,0,0,1.11-.46.88.88,0,0,1,.58-.22h1.18A3.18,3.18,0,0,1,377,167.9Zm-.5-4h2.38c.06-.85-.27-1.28-.95-1.28S376.8,163,376.54,163.89Z"/><path class="cls-1" d="M381.26,164.47a3.48,3.48,0,0,1,3.8-3.07h.23l-.29,1.66h-.54a1.47,1.47,0,0,0-1.58,1.39l-.58,3.3h-1.62Z"/><path class="cls-1" d="M387.72,167.9c-1.91-.06-2.67-1.18-2.29-3.34s1.54-3.24,3.48-3.26,2.74,1.24,2.18,3.73H387c-.11,1,.22,1.46,1,1.46a1.76,1.76,0,0,0,1.11-.46.86.86,0,0,1,.58-.22h1.18A3.18,3.18,0,0,1,387.72,167.9Zm-.5-4h2.38c0-.85-.27-1.28-1-1.28S387.48,163,387.22,163.89Z"/><path class="cls-1" d="M398.51,160.39,397.7,165a3.14,3.14,0,0,1-3.48,2.85c-2,0-2.76-1.11-2.38-3.22s1.41-3.27,3.11-3.33a1.64,1.64,0,0,1,1.64,1l.48-2.7h.79A.66.66,0,0,1,398.51,160.39Zm-5,4.17c-.24,1.28.08,1.93,1,1.93s1.48-.65,1.71-1.93-.16-1.83-1-1.83S393.76,163.33,393.49,164.56Z"/><path class="cls-1" d="M406.11,162.29a2.41,2.41,0,0,1,2-1q2.52.09,1.95,3.33t-3.52,3.22c-2,0-2.81-.94-2.47-2.85l.95-5.41h.8c.53,0,.75.27.65.8Zm-.4,2.27c-.24,1.28.08,1.93,1,1.93s1.48-.65,1.71-1.93-.16-1.83-1-1.83S406,163.33,405.71,164.56Z"/><path class="cls-1" d="M410.86,168.88c.88,0,1.27-.43,1.16-1.27L411,161.4h1.81l.48,4.41L415,162a.87.87,0,0,1,.86-.56H417l-3.82,7.43a2.15,2.15,0,0,1-2.33,1.41,1.8,1.8,0,0,1-.66-.05l.23-1.31Z"/></svg>