<svg width="221" height="75" viewBox="0 0 221 75" fill="none" xmlns="http://www.w3.org/2000/svg">
<path d="M26.1574 17.0364C20.3171 14.9752 15.4203 16.2715 11.4225 20.8609V11.553C11.4225 8.9553 10.1263 7.57947 7.52888 7.57947H3.55585V44.0116C3.55585 46.4652 4.77259 47.7219 7.32029 47.7219H11.4225L11.343 47.6623L11.4225 47.702V31.7086C11.4225 26.9305 13.409 23.0364 18.0872 23.0364C22.5569 23.0364 24.5782 26.4586 24.5782 31.7086V47.702H32.3653V29.6026C32.6037 22.8245 30.5394 18.6358 26.1723 17.0364" fill="#183A5C"/>
<path d="M72.1155 7.59935H68.0382V41.6126V43.9123C67.9786 46.4503 69.2152 47.7467 71.8126 47.7467H75.8849L75.7856 47.6722L75.8849 47.7268V11.4239C75.88 10.4187 75.4826 9.45524 74.7775 8.73893C74.0724 8.02262 73.1154 7.61013 72.1105 7.58942" fill="#183A5C"/>
<path d="M85.5643 7.59935H81.4919V41.6126V43.9123C81.4323 46.4503 82.6689 47.7467 85.2663 47.7467H89.3387L89.1798 47.6275L89.3387 47.7268V11.4239C89.3337 10.4187 88.9363 9.45524 88.2312 8.73893C87.5261 8.02262 86.5691 7.61013 85.5643 7.58942" fill="#183A5C"/>
<path d="M107.689 16.0331C98.2531 16.0331 93.5252 21.4023 93.5252 32.2599C93.5252 42.9983 98.2481 48.4272 107.689 48.4272C117.13 48.4272 121.903 42.9983 121.903 32.2599C121.903 21.4023 117.125 16.0331 107.689 16.0331ZM107.629 41.404C103.617 41.404 101.551 38.3344 101.491 32.2599C101.491 26.0662 103.557 22.9371 107.689 22.9371C111.697 22.9371 113.703 25.947 113.703 32.0265C113.644 38.2202 111.642 41.404 107.629 41.404Z" fill="#183A5C"/>
<path d="M50.4029 16.0331C40.9074 16.0927 36.1248 21.4023 36.1248 32.0265C36.1248 42.6507 40.8478 48.1341 50.2887 48.4172C57.9566 48.4172 62.2078 44.7616 63.9162 38.1507H58.1354C57.6376 38.1334 57.142 38.2249 56.6831 38.4187C56.2242 38.6126 55.8131 38.9042 55.4785 39.2732C54.821 39.9617 54.0344 40.5139 53.1635 40.8983C52.2926 41.2826 51.3546 41.4916 50.4029 41.5133C46.6782 41.5133 44.6321 39.2235 44.2447 34.7185C44.0793 32.5659 44.1393 30.4018 44.4235 28.2616C45.084 24.4172 47.0656 22.4354 50.3085 22.4354C53.6707 22.4354 55.6175 24.5613 56.0893 28.6887H46.9315V34.2964H64.388C64.974 22.0811 60.3123 15.9834 50.4029 16.0033" fill="#183A5C"/>
<path d="M133.534 11.4238V47.7119H125.687V7.59933H129.754C130.758 7.61872 131.715 8.02927 132.421 8.74358C133.127 9.4579 133.526 10.4196 133.534 11.4238V11.4238Z" fill="#82027E"/>
<path d="M143.208 7.59933C145.805 7.59933 147.042 8.89569 146.982 11.4338V13.7334H139.136V7.59933H143.208ZM143.208 16.505C145.746 16.505 146.982 17.7467 146.982 20.2848V47.7219H139.136V16.505H143.208Z" fill="#82027E"/>
<path d="M181.141 16.505L170.11 47.7219H161.792L150.816 16.505H159.492L165.805 38.399L171.228 19.2815C171.444 18.4441 171.947 17.7086 172.647 17.2017C173.348 16.6949 174.204 16.4485 175.067 16.505H181.141Z" fill="#82027E"/>
<path d="M196.953 16.0381C187.453 16.0977 182.675 21.4073 182.675 32.0265C182.675 42.6457 187.398 48.1341 196.834 48.4172C204.507 48.4172 208.753 44.7616 210.462 38.1507H204.681C204.184 38.1341 203.689 38.2259 203.231 38.4198C202.773 38.6136 202.363 38.9048 202.029 39.2732C200.701 40.6632 198.875 41.469 196.953 41.5132C193.228 41.5132 191.182 39.2285 190.795 34.7185C190.629 32.566 190.688 30.4021 190.969 28.2616C191.634 24.4172 193.611 22.4354 196.854 22.4354C200.221 22.4354 202.163 24.5612 202.64 28.6887H193.502V34.2963H210.953C211.544 22.0828 206.886 16.0083 196.973 16.0083" fill="#82027E"/>
<path d="M190.616 58.7036C190.457 58.7036 190.442 58.9172 190.442 58.9719V66.6606H191.47C191.629 66.6606 191.644 66.447 191.644 66.3874V63.4073C191.649 63.3841 191.659 63.3627 191.675 63.3451C191.691 63.3276 191.711 63.3148 191.734 63.308H193.089C193.233 63.308 193.258 63.1291 193.263 63.0546V62.0861H191.724C191.699 62.0783 191.677 62.0622 191.663 62.0405C191.648 62.0188 191.642 61.9928 191.644 61.9669V60.0248C191.648 59.9937 191.663 59.9651 191.687 59.9448C191.711 59.9245 191.742 59.9141 191.773 59.9156H193.621C193.864 59.9156 193.859 59.5877 193.859 59.5877V58.7136L190.616 58.7036Z" fill="#183A5C"/>
<path d="M194.857 58.7036C194.698 58.7036 194.684 58.9172 194.684 58.9719V66.6606H195.707C195.866 66.6606 195.88 66.447 195.88 66.3874V63.4073C195.886 63.384 195.898 63.3626 195.915 63.3452C195.931 63.3278 195.952 63.315 195.975 63.308H197.326C197.475 63.308 197.494 63.1291 197.499 63.0546V62.0861H195.965C195.94 62.0783 195.919 62.0622 195.904 62.0405C195.89 62.0188 195.883 61.9928 195.885 61.9669V60.0248C195.889 59.9937 195.905 59.9651 195.929 59.9448C195.952 59.9245 195.983 59.9141 196.015 59.9156H197.867C198.11 59.9156 198.1 59.5877 198.1 59.5877V58.7136L194.857 58.7036Z" fill="#183A5C"/>
<path d="M179.02 61.6441L175.861 59.0513C175.921 58.9669 179.03 55.8576 179.119 55.798C179.453 55.5746 179.841 55.4459 180.242 55.4255H184.249C184.65 55.4466 185.038 55.5753 185.372 55.798L179.566 61.5894C179.5 61.6671 179.406 61.7161 179.304 61.7263C179.202 61.7365 179.1 61.707 179.02 61.6441V61.6441Z" fill="#183A5C"/>
<path d="M182.76 58.9719L185.352 55.8129C185.441 55.8725 188.55 58.9768 188.61 59.0662C188.833 59.4002 188.961 59.7879 188.982 60.1888V64.1921C188.961 64.5929 188.833 64.9806 188.61 65.3146L182.814 59.5182C182.738 59.451 182.689 59.3572 182.679 59.2558C182.669 59.1544 182.698 59.0529 182.76 58.9719V58.9719Z" fill="#183A5C"/>
<path d="M185.456 62.7069L188.615 65.2997C188.555 65.3891 185.446 68.4983 185.357 68.553C185.025 68.7771 184.639 68.9075 184.239 68.9305H180.237C179.835 68.9074 179.448 68.777 179.114 68.553L184.91 62.7616C184.976 62.6839 185.07 62.6349 185.172 62.6247C185.274 62.6145 185.376 62.644 185.456 62.7069V62.7069Z" fill="#183A5C"/>
<path d="M181.702 65.3841L179.114 68.543C179.025 68.4834 175.916 65.3742 175.856 65.2848C175.633 64.9512 175.504 64.5632 175.484 64.1622V60.1639C175.504 59.7629 175.633 59.375 175.856 59.0414L181.652 64.8377C181.729 64.905 181.777 64.9992 181.786 65.101C181.796 65.2027 181.765 65.3041 181.702 65.3841Z" fill="#183A5C"/>
<path d="M173.006 66.4619L174.416 58.7086H173.378C173.323 58.7064 173.268 58.7228 173.223 58.7552C173.178 58.7876 173.145 58.8342 173.13 58.8874L172.211 64.8477C172.206 64.857 172.198 64.8648 172.189 64.8702C172.18 64.8756 172.17 64.8784 172.159 64.8784C172.148 64.8784 172.138 64.8756 172.129 64.8702C172.12 64.8648 172.112 64.857 172.107 64.8477L171.183 58.8874C171.165 58.8382 171.131 58.796 171.088 58.7667C171.044 58.7373 170.992 58.7222 170.94 58.7235H169.897L171.322 66.6705H172.772C172.829 66.6678 172.884 66.6456 172.926 66.6077C172.969 66.5697 172.997 66.5182 173.006 66.4619V66.4619Z" fill="#183A5C"/>
<path d="M200.047 58.7086H199.054V66.4917C199.054 66.6407 199.253 66.6606 199.253 66.6606H200.246V58.8775C200.246 58.7285 200.047 58.7086 200.047 58.7086Z" fill="#183A5C"/>
<path d="M203.936 61.4255H204.984V60.5166C204.985 60.2668 204.937 60.0192 204.842 59.7882C204.747 59.5571 204.608 59.3471 204.431 59.1702C204.255 58.9934 204.045 58.8532 203.815 58.7578C203.584 58.6624 203.336 58.6136 203.087 58.6142C202.582 58.6142 202.097 58.8145 201.74 59.1711C201.382 59.5277 201.181 60.0116 201.18 60.5166V64.8576C201.18 65.2331 201.292 65.6 201.501 65.9121C201.709 66.2242 202.006 66.4675 202.353 66.6114C202.699 66.7554 203.081 66.7934 203.449 66.7209C203.818 66.6483 204.156 66.4683 204.423 66.2036C204.604 66.0302 204.747 65.821 204.844 65.5894C204.941 65.3577 204.988 65.1086 204.984 64.8576V63.9238C204.984 63.7748 204.785 63.75 204.785 63.75H203.737V64.8477C203.741 64.9402 203.724 65.0323 203.689 65.118C203.654 65.2037 203.601 65.2808 203.534 65.3444C203.469 65.4104 203.392 65.4629 203.306 65.4988C203.221 65.5346 203.129 65.5531 203.037 65.5531C202.944 65.5531 202.853 65.5346 202.768 65.4988C202.682 65.4629 202.605 65.4104 202.54 65.3444C202.475 65.2798 202.423 65.2024 202.389 65.1169C202.355 65.0314 202.339 64.9397 202.342 64.8477V60.4967C202.339 60.3597 202.377 60.2249 202.452 60.1099C202.526 59.9949 202.633 59.9048 202.759 59.8513C202.886 59.7978 203.025 59.7834 203.159 59.8099C203.294 59.8364 203.417 59.9026 203.514 60C203.581 60.0635 203.634 60.1407 203.669 60.2264C203.704 60.312 203.721 60.4042 203.717 60.4967V61.2666C203.747 61.4056 203.936 61.4255 203.936 61.4255Z" fill="#183A5C"/>
<path d="M209.21 59.9056C209.26 59.9056 209.374 59.8609 209.379 59.7467V58.7036H206.136C205.987 58.7036 205.967 58.9023 205.967 58.9023V66.4619C205.967 66.4619 205.967 66.6606 206.136 66.6606H209.379V65.6175C209.379 65.5033 209.26 65.4685 209.21 65.4586H207.164V63.2881H208.609C208.664 63.2881 208.778 63.2434 208.783 63.1291V62.0861H207.164V59.9156L209.21 59.9056Z" fill="#183A5C"/>
<path d="M210.437 59.8361V58.8129H210.228V58.6987H210.774V58.8129H210.571V59.8361H210.437Z" fill="#183A5C"/>
<path d="M211.316 59.8361H211.192L211.003 58.9272V59.8361H210.894V58.6987H211.067L211.256 59.6076L211.44 58.6987H211.614V59.8361H211.494V58.9172L211.316 59.8361Z" fill="#183A5C"/>
<path d="M136.603 63.005H135.58L135.326 64.4454H134.497L135.133 60.8245C135.157 60.7079 135.218 60.6024 135.308 60.5243C135.398 60.4462 135.511 60.3998 135.629 60.3924H137.005C137.864 60.3924 138.227 60.8494 138.078 61.6987C138.045 62.0635 137.874 62.4021 137.6 62.6449C137.326 62.8878 136.969 63.0166 136.603 63.005ZM136.523 62.2699C136.61 62.2809 136.698 62.2744 136.782 62.2507C136.866 62.227 136.945 62.1865 137.013 62.1318C137.081 62.0771 137.137 62.0093 137.179 61.9323C137.22 61.8553 137.245 61.7708 137.253 61.6838C137.323 61.2914 137.159 61.0927 136.757 61.0927H135.913L135.704 62.2699H136.523Z" fill="#183A5C"/>
<path d="M141.082 62.8858C140.889 63.9686 140.313 64.5199 139.359 64.5199C138.406 64.5199 138.023 63.9686 138.217 62.8858C138.411 61.803 138.982 61.2417 139.935 61.2417C140.889 61.2417 141.276 61.7881 141.082 62.8858ZM139.021 62.8858C138.917 63.4967 139.071 63.8096 139.478 63.8096C139.886 63.8096 140.139 63.4868 140.258 62.8609C140.377 62.2351 140.218 61.9421 139.811 61.9421C139.404 61.9421 139.131 62.255 139.021 62.8858Z" fill="#183A5C"/>
<path d="M145.935 61.2914L144.519 64.4454H143.7L143.62 62.1854L142.721 64.4454H141.892L141.584 61.2914H142.389L142.503 63.4818L143.342 61.2914H144.181L144.226 63.4818L144.991 61.5844C145.025 61.4965 145.085 61.4211 145.163 61.3687C145.241 61.3162 145.334 61.2892 145.428 61.2914H145.935Z" fill="#183A5C"/>
<path d="M147.002 64.5199C146.054 64.4901 145.676 63.9338 145.865 62.8609C146.054 61.7881 146.63 61.2517 147.593 61.2417C148.557 61.2318 148.954 61.8576 148.676 63.0944H146.64C146.585 63.5911 146.749 63.8195 147.136 63.8195C147.341 63.8104 147.536 63.7295 147.688 63.5911C147.767 63.5209 147.87 63.482 147.976 63.4818H148.562C148.447 63.7986 148.233 64.0703 147.952 64.257C147.672 64.4438 147.339 64.5359 147.002 64.5199V64.5199ZM146.754 62.5331H147.936C147.966 62.1109 147.802 61.8974 147.464 61.8974C147.126 61.8974 146.903 62.0861 146.774 62.5281L146.754 62.5331Z" fill="#183A5C"/>
<path d="M149.118 62.8162C149.169 62.3651 149.396 61.9523 149.749 61.667C150.102 61.3817 150.553 61.2468 151.005 61.2914H151.119L150.975 62.1159H150.707C150.61 62.1085 150.512 62.1206 150.42 62.1515C150.328 62.1823 150.242 62.2314 150.169 62.2957C150.096 62.3601 150.037 62.4384 149.994 62.5261C149.952 62.6138 149.927 62.709 149.922 62.8063L149.634 64.4454H148.83L149.118 62.8162Z" fill="#183A5C"/>
<path d="M152.326 64.5199C151.378 64.4901 151 63.9338 151.189 62.8609C151.378 61.7881 151.954 61.2517 152.917 61.2417C153.881 61.2318 154.278 61.8576 154 63.0944H151.969C151.914 63.5911 152.078 63.8195 152.465 63.8195C152.67 63.8104 152.865 63.7295 153.016 63.5911C153.095 63.5201 153.198 63.4811 153.304 63.4818H153.89C153.775 63.7994 153.561 64.0717 153.279 64.2586C152.998 64.4454 152.664 64.537 152.326 64.5199ZM152.078 62.5331H153.26C153.26 62.1109 153.126 61.8973 152.763 61.8973C152.401 61.8973 152.207 62.0861 152.078 62.5281V62.5331Z" fill="#183A5C"/>
<path d="M157.685 60.7897L157.282 63.0795C157.265 63.2869 157.205 63.4887 157.108 63.6729C157.011 63.857 156.878 64.0199 156.717 64.1518C156.556 64.2838 156.37 64.3821 156.17 64.441C155.971 64.5 155.761 64.5183 155.554 64.495C154.561 64.495 154.183 63.9437 154.372 62.8957C154.561 61.8477 155.072 61.2715 155.917 61.2417C156.087 61.2284 156.258 61.2692 156.404 61.3583C156.55 61.4475 156.665 61.5805 156.731 61.7384L156.97 60.3973H157.362C157.411 60.3971 157.459 60.4077 157.503 60.4284C157.547 60.4491 157.586 60.4793 157.616 60.5169C157.647 60.5544 157.67 60.5984 157.681 60.6456C157.693 60.6928 157.694 60.742 157.685 60.7897V60.7897ZM155.202 62.8609C155.082 63.4967 155.241 63.8195 155.698 63.8195C156.155 63.8195 156.433 63.4967 156.547 62.8609C156.662 62.2252 156.468 61.952 156.051 61.952C155.634 61.952 155.326 62.25 155.192 62.8609H155.202Z" fill="#183A5C"/>
<path d="M161.459 61.7334C161.572 61.5766 161.722 61.4494 161.895 61.3629C162.068 61.2764 162.259 61.2331 162.452 61.2368C163.287 61.2666 163.61 61.8179 163.421 62.8907C163.232 63.9636 162.649 64.4967 161.673 64.4901C160.679 64.4901 160.277 64.0232 160.446 63.0745L160.918 60.3874H161.315C161.578 60.3874 161.688 60.5215 161.638 60.7848L161.459 61.7334ZM161.26 62.8609C161.141 63.4967 161.3 63.8195 161.757 63.8195C162.214 63.8195 162.492 63.4967 162.606 62.8609C162.721 62.2252 162.527 61.952 162.11 61.952C161.693 61.952 161.404 62.25 161.26 62.8609V62.8609Z" fill="#183A5C"/>
<path d="M163.818 65.0066C164.255 65.0066 164.449 64.793 164.394 64.3758L163.888 61.2914H164.787L165.025 63.4818L165.874 61.5894C165.907 61.5037 165.966 61.4306 166.042 61.3806C166.119 61.3306 166.21 61.3063 166.301 61.3113H166.867L164.97 65.0017C164.888 65.234 164.728 65.4308 164.517 65.5584C164.306 65.6861 164.057 65.7368 163.813 65.702C163.703 65.714 163.592 65.7056 163.485 65.6772L163.6 65.0265L163.818 65.0066Z" fill="#183A5C"/>
</svg>
